<svg xmlns="http://www.w3.org/2000/svg" viewBox="0 0 64 64">
  <rect width="64" height="64" rx="14" fill="#197348"/>
  <path d="M18 34c0-11 8-19 19-19 6 0 10 2 10 2s-2 4-6 7c3 2 5 6 5 10 0 9-6 15-14 15s-14-6-14-15Z" fill="#8bd450"/>
  <path d="M28 18c3-6 8-8 14-7-2 5-6 8-14 7Z" fill="#f7c948"/>
  <circle cx="29" cy="34" r="2.5" fill="#17251d"/>
  <circle cx="37" cy="34" r="2.5" fill="#17251d"/>
  <path d="M28 41c3 2 7 2 10 0" stroke="#17251d" stroke-width="3" stroke-linecap="round" fill="none"/>
</svg>
